<?xml version="1.0" encoding="UTF-8"?>
<svg xmlns="http://www.w3.org/2000/svg" xmlns:xlink="http://www.w3.org/1999/xlink" width="60px" height="71px" viewBox="0 0 60 71" version="1.1">
<defs>
<linearGradient id="linear0" gradientUnits="userSpaceOnUse" x1="14.65" y1="6.98" x2="15.67" y2="28.15" gradientTransform="matrix(1.972222,0,0,1.972222,0.416667,0.325417)">
<stop offset="0" style="stop-color:rgb(28.627451%,94.901961%,68.235294%);stop-opacity:1;"/>
<stop offset="1" style="stop-color:rgb(3.529412%,81.176471%,97.647059%);stop-opacity:1;"/>
</linearGradient>
</defs>
<g id="surface1">
<path style=" stroke:none;fill-rule:nonzero;fill:rgb(80.784314%,80.784314%,80.784314%);fill-opacity:1;" d="M 0.417969 38.648438 C 0.417969 37.976562 0.417969 37.316406 0.417969 36.675781 C 0.417969 36.121094 0.515625 35.570312 0.515625 35.039062 C 0.515625 29.1875 0.515625 23.328125 0.515625 17.464844 C 0.515625 16.320312 0.417969 15.214844 0.417969 14.128906 L 0.417969 13.539062 C 0.417969 13.28125 0.515625 13.027344 0.535156 12.769531 C 0.632812 9.453125 2.960938 6.621094 6.195312 5.886719 C 12.78125 4.269531 19.367188 2.632812 25.957031 0.957031 C 28.132812 0.269531 30.445312 0.152344 32.679688 0.621094 C 39.566406 2.375 46.488281 4.050781 53.351562 5.746094 C 56.953125 6.339844 59.5625 9.5 59.464844 13.144531 C 59.464844 19.734375 59.464844 26.320312 59.464844 32.867188 C 59.464844 34.304688 59.464844 35.746094 59.582031 37.167969 L 59.582031 38.46875 C 59.484375 39.570312 59.425781 40.65625 59.265625 41.761719 C 58.414062 47.445312 55.871094 52.746094 51.972656 56.96875 C 46.714844 62.679688 40.246094 67.140625 33.035156 70.027344 C 31.722656 70.574219 30.285156 70.75 28.875 70.539062 C 27.234375 70.191406 25.660156 69.59375 24.203125 68.761719 C 17.40625 65.703125 11.414062 61.113281 6.6875 55.347656 C 3.558594 51.546875 1.515625 46.96875 0.769531 42.097656 C 0.652344 40.972656 0.554688 39.769531 0.417969 38.648438 Z M 52.757812 25.667969 C 52.757812 21.289062 52.757812 16.910156 52.757812 12.535156 C 52.757812 12.023438 52.621094 11.84375 52.109375 11.726562 L 30.53125 6.421875 C 30.179688 6.335938 29.820312 6.335938 29.46875 6.421875 L 7.953125 11.726562 C 7.417969 11.863281 7.28125 12.042969 7.28125 12.574219 C 7.28125 20.988281 7.28125 29.402344 7.28125 37.820312 C 7.1875 42.835938 8.886719 47.722656 12.074219 51.601562 C 16.832031 57.214844 22.867188 61.609375 29.664062 64.421875 C 29.898438 64.511719 30.15625 64.511719 30.394531 64.421875 C 36.84375 61.71875 42.613281 57.617188 47.277344 52.410156 C 50.808594 48.511719 52.761719 43.433594 52.757812 38.171875 C 52.757812 33.976562 52.757812 29.816406 52.757812 25.6875 Z M 52.757812 25.667969 "/>
<path style=" stroke:none;fill-rule:nonzero;fill:url(#linear0);" d="M 47.648438 28.566406 C 47.648438 31.859375 47.648438 35.152344 47.648438 38.425781 C 47.488281 42.085938 46.058594 45.574219 43.609375 48.289062 C 39.972656 52.414062 35.4375 55.652344 30.355469 57.757812 C 30.144531 57.835938 29.914062 57.835938 29.703125 57.757812 C 24.332031 55.550781 19.59375 52.054688 15.898438 47.578125 C 13.515625 44.632812 12.230469 40.953125 12.25 37.167969 C 12.25 30.894531 12.25 24.621094 12.25 18.332031 C 12.25 17.5625 12.40625 17.226562 13.21875 17.03125 C 18.621094 15.746094 24.007812 14.386719 29.386719 13.085938 C 29.734375 13.003906 30.089844 13.003906 30.433594 13.085938 L 47.023438 17.167969 C 47.515625 17.289062 47.574219 17.542969 47.574219 17.976562 C 47.574219 21.503906 47.574219 25.039062 47.574219 28.585938 Z M 27.21875 37.523438 C 25.367188 35.921875 23.511719 34.285156 21.636719 32.6875 C 21.242188 32.34375 20.792969 32.058594 20.316406 31.839844 C 19.679688 31.550781 18.925781 31.714844 18.464844 32.238281 C 17.933594 32.683594 17.742188 33.421875 17.988281 34.070312 C 18.125 34.457031 18.308594 34.816406 18.539062 35.152344 C 20.734375 38.191406 22.945312 41.214844 25.167969 44.230469 C 26.6875 46.199219 27.75 46.199219 29.328125 44.230469 C 33.378906 39.03125 37.414062 33.832031 41.441406 28.628906 C 41.691406 28.304688 41.890625 27.945312 42.03125 27.5625 C 42.273438 26.84375 42.039062 26.054688 41.441406 25.589844 C 40.976562 25.09375 40.238281 24.96875 39.644531 25.292969 C 39.117188 25.574219 38.632812 25.925781 38.203125 26.339844 C 35.234375 29.28125 32.277344 32.238281 29.328125 35.195312 C 28.621094 35.980469 28.027344 36.714844 27.21875 37.523438 Z M 27.21875 37.523438 "/>
</g>
</svg>
