<?xml version="1.0" encoding="UTF-8"?>
<svg xmlns="http://www.w3.org/2000/svg" xmlns:xlink="http://www.w3.org/1999/xlink" width="144px" height="33px" viewBox="0 0 143 33" version="1.1">
<g id="surface1">
<path style=" stroke:none;fill-rule:nonzero;fill:rgb(0%,55.294118%,82.745098%);fill-opacity:1;" d="M 67.132812 6.210938 C 67.425781 6.210938 67.558594 6.34375 67.507812 6.636719 L 64.195312 23.804688 C 63.925781 25.210938 63.558594 26.09375 63.105469 26.4375 C 62.652344 26.785156 61.703125 26.96875 60.242188 26.96875 C 58.601562 26.96875 57.539062 26.8125 57.089844 26.46875 C 56.644531 26.121094 56.242188 25.261719 55.890625 23.804688 L 53.53125 13.746094 L 51.128906 23.804688 C 50.304688 26.785156 50.28125 26.8125 46.808594 26.96875 C 45.351562 26.96875 44.371094 26.785156 43.921875 26.4375 C 43.472656 26.09375 43.121094 25.230469 42.832031 23.804688 L 39.574219 6.636719 C 39.519531 6.34375 39.628906 6.210938 39.917969 6.210938 L 43.445312 6.210938 C 43.628906 6.210938 43.761719 6.34375 43.8125 6.636719 L 46.648438 21.894531 C 46.785156 22.554688 46.917969 22.699219 47.261719 22.699219 C 47.683594 22.699219 47.761719 22.566406 47.949219 21.894531 L 51.421875 7.355469 C 51.472656 7.089844 51.710938 6.90625 51.976562 6.929688 L 55.105469 6.929688 C 55.363281 6.910156 55.597656 7.09375 55.632812 7.355469 L 59.128906 21.894531 C 59.316406 22.554688 59.371094 22.699219 59.792969 22.699219 C 60.136719 22.699219 60.269531 22.539062 60.402344 21.894531 L 63.238281 6.636719 C 63.316406 6.292969 63.398438 6.210938 63.636719 6.210938 Z M 67.132812 6.210938 "/>
<path style=" stroke:none;fill-rule:nonzero;fill:rgb(0%,55.294118%,82.745098%);fill-opacity:1;" d="M 83.511719 7.515625 C 84.652344 8.472656 85.207031 10.257812 85.207031 12.894531 C 85.207031 15.636719 84.785156 17.179688 83.480469 18.125 C 82.179688 19.070312 80.515625 19.332031 77.445312 19.332031 L 74.15625 19.332031 L 74.15625 26.390625 C 74.15625 26.738281 74.078125 26.816406 73.757812 26.816406 L 70.394531 26.816406 C 70.078125 26.816406 69.992188 26.738281 69.992188 26.390625 L 69.992188 6.71875 C 69.992188 6.425781 70.074219 6.371094 70.394531 6.34375 C 72.539062 6.160156 74.875 6.050781 77.445312 6.050781 C 80.382812 6.050781 82.398438 6.527344 83.511719 7.515625 Z M 74.15625 9.699219 L 74.15625 16.160156 L 77.019531 16.160156 C 78.621094 16.160156 79.722656 15.976562 80.222656 15.601562 C 80.722656 15.226562 80.988281 14.351562 80.988281 13.019531 C 80.988281 11.6875 80.722656 10.808594 80.1875 10.382812 C 79.652344 9.957031 78.585938 9.71875 77.007812 9.71875 Z M 74.15625 9.699219 "/>
<path style=" stroke:none;fill-rule:nonzero;fill:rgb(16.470588%,19.607843%,49.803922%);fill-opacity:1;" d="M 105.953125 6.210938 C 106.0625 6.195312 106.175781 6.230469 106.253906 6.3125 C 106.332031 6.390625 106.371094 6.503906 106.355469 6.613281 L 106.355469 9.460938 C 106.371094 9.574219 106.332031 9.683594 106.253906 9.765625 C 106.175781 9.84375 106.0625 9.878906 105.953125 9.863281 L 96.445312 9.863281 L 96.445312 14.894531 L 105.132812 14.894531 C 105.425781 14.894531 105.558594 15.027344 105.558594 15.296875 L 105.558594 18.011719 C 105.558594 18.277344 105.425781 18.414062 105.132812 18.414062 L 96.445312 18.414062 L 96.445312 23.171875 L 105.953125 23.171875 C 106.0625 23.15625 106.175781 23.191406 106.253906 23.273438 C 106.332031 23.351562 106.371094 23.464844 106.355469 23.574219 L 106.355469 26.417969 C 106.371094 26.53125 106.332031 26.640625 106.253906 26.722656 C 106.175781 26.800781 106.0625 26.835938 105.953125 26.820312 L 92.679688 26.820312 C 92.414062 26.820312 92.28125 26.6875 92.28125 26.394531 L 92.28125 6.609375 C 92.261719 6.5 92.300781 6.386719 92.378906 6.308594 C 92.457031 6.226562 92.570312 6.191406 92.679688 6.207031 Z M 105.953125 6.210938 "/>
<path style=" stroke:none;fill-rule:nonzero;fill:rgb(16.470588%,19.607843%,49.803922%);fill-opacity:1;" d="M 122.96875 7.515625 C 124.109375 8.472656 124.664062 10.257812 124.664062 12.894531 C 124.664062 14.90625 124.371094 16.351562 123.765625 17.285156 C 123.15625 18.21875 122.117188 18.804688 120.609375 19.097656 L 125.113281 26.285156 C 125.324219 26.578125 125.195312 26.816406 124.796875 26.816406 L 121.457031 26.816406 C 121.015625 26.855469 120.59375 26.617188 120.398438 26.21875 L 116.050781 19.378906 L 113.613281 19.378906 L 113.613281 26.390625 C 113.613281 26.738281 113.535156 26.816406 113.214844 26.816406 L 109.84375 26.816406 C 109.53125 26.816406 109.445312 26.738281 109.445312 26.390625 L 109.445312 6.71875 C 109.445312 6.425781 109.523438 6.371094 109.84375 6.34375 C 111.992188 6.160156 114.328125 6.050781 116.898438 6.050781 C 119.839844 6.050781 121.855469 6.527344 122.96875 7.515625 Z M 113.613281 9.699219 L 113.613281 16.160156 L 116.476562 16.160156 C 118.078125 16.160156 119.179688 15.976562 119.679688 15.601562 C 120.179688 15.226562 120.449219 14.351562 120.449219 13.019531 C 120.449219 11.6875 120.179688 10.808594 119.648438 10.382812 C 119.117188 9.957031 118.046875 9.71875 116.46875 9.71875 Z M 113.613281 9.699219 "/>
<path style=" stroke:none;fill-rule:nonzero;fill:rgb(16.470588%,19.607843%,49.803922%);fill-opacity:1;" d="M 141.304688 7.515625 C 142.445312 8.472656 143 10.257812 143 12.894531 C 143 15.636719 142.574219 17.179688 141.277344 18.125 C 139.980469 19.070312 138.3125 19.332031 135.234375 19.332031 L 131.953125 19.332031 L 131.953125 26.390625 C 131.953125 26.738281 131.871094 26.816406 131.550781 26.816406 L 128.1875 26.816406 C 127.871094 26.816406 127.789062 26.738281 127.789062 26.390625 L 127.789062 6.71875 C 127.789062 6.425781 127.867188 6.371094 128.1875 6.34375 C 130.335938 6.160156 132.664062 6.050781 135.234375 6.050781 C 138.179688 6.050781 140.191406 6.527344 141.304688 7.515625 Z M 131.953125 9.699219 L 131.953125 16.160156 L 134.8125 16.160156 C 136.414062 16.160156 137.515625 15.976562 138.015625 15.601562 C 138.515625 15.226562 138.785156 14.351562 138.785156 13.019531 C 138.785156 11.6875 138.519531 10.808594 137.984375 10.382812 C 137.445312 9.957031 136.382812 9.71875 134.800781 9.71875 Z M 131.953125 9.699219 "/>
<path style=" stroke:none;fill-rule:nonzero;fill:rgb(76.470588%,77.254902%,77.647059%);fill-opacity:1;" d="M 24.5 3.90625 C 24.003906 3.777344 23.496094 3.71875 22.984375 3.726562 C 20.613281 3.726562 18.21875 4.492188 16.015625 5.367188 C 14.199219 6.070312 12.453125 6.953125 10.8125 8.003906 C 9.746094 8.699219 7.417969 9.90625 7.296875 11.339844 C 7.203125 12.394531 8.472656 13.160156 9.375 13.277344 C 10.199219 13.378906 10.847656 12.960938 11.535156 12.519531 C 12.484375 11.90625 13.359375 11.378906 14.195312 10.910156 C 17.378906 9.132812 22.886719 6.816406 26.445312 5.578125 C 25.847656 4.964844 25.199219 4.402344 24.5 3.90625 Z M 24.5 3.90625 "/>
<path style=" stroke:none;fill-rule:nonzero;fill:rgb(0%,63.137255%,89.411765%);fill-opacity:1;" d="M 24.78125 24.410156 L 24.023438 24.726562 C 23.140625 25.09375 22.226562 25.480469 21.304688 25.796875 C 20.28125 26.140625 19.230469 26.398438 18.164062 26.570312 C 17.800781 26.632812 17.4375 26.664062 17.070312 26.667969 C 15.203125 26.667969 14.34375 25.699219 13.945312 24.804688 C 13.5625 23.929688 13.578125 22.925781 13.988281 22.0625 C 15.527344 18.84375 26.238281 14.902344 27.457031 14.457031 C 28.789062 13.976562 30.933594 13.34375 32.441406 12.90625 C 32.609375 10.285156 30.007812 7.21875 28.636719 6.613281 C 26.144531 7.261719 18.550781 10.199219 14.265625 12.589844 C 13.441406 13.050781 12.585938 13.570312 11.644531 14.171875 C 11 14.574219 10.277344 15.050781 9.375 15.050781 C 9.261719 15.050781 9.148438 15.042969 9.039062 15.03125 C 7.902344 14.898438 6.921875 14.164062 6.464844 13.109375 C 5.734375 11.226562 6.867188 10.058594 7.714844 9.199219 L 8.007812 8.917969 L 8.007812 8.894531 C 10.632812 6.5625 15.050781 3.324219 23.625 1.773438 C 17.386719 -1.339844 9.867188 -0.140625 4.894531 4.761719 C -0.078125 9.664062 -1.414062 17.191406 1.5625 23.519531 C 4.542969 29.847656 11.179688 33.582031 18.105469 32.832031 C 25.035156 32.078125 30.726562 27.003906 32.289062 20.183594 C 29.929688 21.832031 27.414062 23.246094 24.78125 24.410156 Z M 24.78125 24.410156 "/>
<path style=" stroke:none;fill-rule:nonzero;fill:rgb(76.470588%,77.254902%,77.647059%);fill-opacity:1;" d="M 30.726562 15.5 C 27.679688 16.285156 24.695312 17.3125 21.804688 18.574219 C 20.339844 19.21875 18.941406 20 17.617188 20.90625 C 16.902344 21.410156 15.164062 22.546875 15.109375 23.535156 C 15.03125 24.894531 16.914062 25.566406 18.015625 25.316406 C 20.304688 24.804688 22.175781 23.546875 24.164062 22.5 C 26.378906 21.386719 28.496094 20.09375 30.496094 18.628906 C 30.667969 17.742188 30.753906 16.839844 30.753906 15.933594 C 30.734375 15.792969 30.730469 15.648438 30.726562 15.5 Z M 30.726562 15.5 "/>
</g>
</svg>
