<svg xmlns="http://www.w3.org/2000/svg" viewBox="0 0 121.74 82.08"><defs><style>.cls-1{opacity:0.08;}.cls-2{fill:#303030;}</style></defs><title>bg illustration</title><g id="Layer_2" data-name="Layer 2"><g id="Layer_1-2" data-name="Layer 1"><g id="Layer_2-2" data-name="Layer 2" class="cls-1"><g id="Layer_4" data-name="Layer 4"><polygon class="cls-2" points="23.66 79.85 22.88 79.85 22.88 79.06 22.8 78.98 22.54 78.98 22.46 79.06 22.46 79.85 21.68 79.85 21.59 79.93 21.59 80.17 21.68 80.25 22.46 80.25 22.46 81.05 22.54 81.13 22.8 81.13 22.88 81.05 22.88 80.25 23.66 80.25 23.74 80.17 23.74 79.93 23.66 79.85"/><polygon class="cls-2" points="84.32 4.71 83.07 3.45 83.07 4.68 83.1 4.71 84.32 4.71"/><path class="cls-2" d="M82.72,4.68V3.26H79.1a.6.6,0,0,0-.6.6V9.25a.6.6,0,0,0,.6.6h4.75a.6.6,0,0,0,.6-.6V5H83.1A.38.38,0,0,1,82.72,4.68Zm-.44,4H79.69a.15.15,0,0,1-.12-.16l.13-.16h2.59l.12.16a.15.15,0,0,1-.13.12Zm.85-1h-3.4l-.16-.16a.16.16,0,0,1,.16-.16h3.4a.16.16,0,0,1,.16.16h0Zm0-1.3.16.16-.16.16h-3.4l-.16-.16.16-.16Z"/><polygon class="cls-2" points="22.66 47.22 22.66 41.63 19.57 44 22.64 47.31 22.66 47.22"/><path class="cls-2" d="M22.13,41.45a.55.55,0,0,0,.4-.17L17.6,37.53l-4.92,3.76a.55.55,0,0,0,.39.16Z"/><polygon class="cls-2" points="15.65 44.01 12.55 41.65 12.55 47.22 12.57 47.32 15.65 44.01"/><polygon class="cls-2" points="17.79 45.36 17.61 45.42 17.42 45.36 16 44.27 12.86 47.64 13.08 47.68 22.14 47.68 22.36 47.63 19.23 44.26 17.79 45.36"/><polygon class="cls-2" points="30.86 18.16 30.86 12.6 27.79 14.96 30.84 18.25 30.86 18.16"/><path class="cls-2" d="M20.94,11.95l4.9,3.73,4.89-3.74a.55.55,0,0,0-.39-.16h-9A.54.54,0,0,0,20.94,11.95Z"/><polygon class="cls-2" points="20.81 12.62 20.81 18.16 20.84 18.26 23.9 14.97 20.81 12.62"/><polygon class="cls-2" points="30.57 18.57 27.45 15.21 26.02 16.31 25.84 16.37 25.66 16.31 24.24 15.23 21.12 18.58 21.34 18.62 30.34 18.62 30.57 18.57"/><path class="cls-2" d="M97.06,42.91a2,2,0,0,1-1.34-.51l-1.41,1.07,3,3.25V42.88Z"/><path class="cls-2" d="M95.33,41.94a1.84,1.84,0,0,1-.25-1.59H87.95a.53.53,0,0,0-.39.17l4.83,3.65Z"/><polygon class="cls-2" points="87.43 41.17 87.43 46.64 87.45 46.74 90.48 43.49 87.43 41.17"/><polygon class="cls-2" points="97.06 47.04 93.98 43.73 92.57 44.81 92.39 44.87 92.21 44.81 90.81 43.74 87.74 47.05 87.94 47.09 96.84 47.09 97.06 47.04"/><path class="cls-2" d="M97.06,42.49a1.62,1.62,0,1,0-1.62-1.62,1.62,1.62,0,0,0,1.62,1.62Zm-.51-2.37L97.3,40v1.46h.35v.3h-1.1v-.3h.36V40.35l-.37.08Z"/><path class="cls-2" d="M44,19.26a3.84,3.84,0,1,0-3.83-3.85h0A3.84,3.84,0,0,0,44,19.26Zm-2.15-4.19,2.43-1.9a.47.47,0,0,1,.58.74h0l-2,1.55,2,1.53a.47.47,0,0,1-.58.74l-2.42-1.9a.47.47,0,0,1-.08-.66l.08-.08Z"/><path class="cls-2" d="M84.88,13.9a4.83,4.83,0,1,0,4.83,4.84,4.83,4.83,0,0,0-4.83-4.84Zm.78,6.5V19.33H81.22V18.17h4.45V17.08l2.88,1.66Z"/><circle class="cls-2" cx="16.36" cy="67.93" r="1.53"/><path class="cls-2" d="M19.83,67.87a3.68,3.68,0,0,0-3.48-3.32,3.68,3.68,0,0,0-3.48,3.32c0,1.71,3.48,7.33,3.48,7.33S19.83,69.58,19.83,67.87Zm-6.21.05a2.74,2.74,0,1,1,2.74,2.74h0a2.74,2.74,0,0,1-2.74-2.73Z"/><path class="cls-2" d="M53.66,3.17a3.17,3.17,0,0,0-6.34,0c0,1.55,3.17,6.67,3.17,6.67S53.66,4.74,53.66,3.17Zm-5.11-.11A1.94,1.94,0,1,1,50.49,5h0a1.94,1.94,0,0,1-1.94-1.92Z"/><path class="cls-2" d="M32.78,57.52a2.39,2.39,0,0,1,0,.6l-.26.42c-.09.41,0,.45-.09.79S32,60.43,32,60.47l-.52.43a.47.47,0,0,1-.42.06c-.19-.09-.17,0-.24-.13V59.1s-.4-.57-.36-.69-.18-.13-.31-.3-.24,0-.33.06a2.7,2.7,0,0,1-.73.15c-.14,0-.29-.49-.38-.63s.12-.53.13-.64.35-.25.39-.31l.19-.45.94-.27.46.17.37.22.8.15.21-.6a3.06,3.06,0,0,0-.41-.12,2,2,0,0,1-.64,0c-.25-.06-.14-.24-.14-.24l-.15-.43-.12.2h-.49a1,1,0,0,0-.27.2,1.51,1.51,0,0,1-.56.4c-.25.11-.35-.29-.35-.29l.22-.42.35-.17.24-.17a.53.53,0,0,1,.33-.26,3.13,3.13,0,0,0,.79-.07c.22-.07.14-.18.14-.18l.49-.24A5.41,5.41,0,0,0,24,53.62l-.16.14h.07l1.2-.41s0,.18.39-.13.46,0,.55,0l.46.55H25a2.64,2.64,0,0,0-.61.44s.61.42.88.15.68-.12,1.11,0,0,.79-.52.8a2.06,2.06,0,0,0-1.12.63l-1,.59a.46.46,0,0,0-.62.2l0,0c-.23.46.54.66.66.72s.64.14.75.19.41.08.62.13.66.36,1,.47.84.82.84.82l-.43,1.29s0,.09-.16.23-.72.83-.72.83v1.27a1.86,1.86,0,0,1-.69-.22c-.21-.16-.36-1.08-.36-1.08a5.54,5.54,0,0,0-.14-1.57,3.88,3.88,0,0,1-.62-1.2.27.27,0,0,1,.21-.3v-.38L23,57.4s-.68-.23-.68-.47a.51.51,0,0,0-.12-.28A5.43,5.43,0,0,0,33,58q0-.13,0-.26a5.35,5.35,0,0,0,0-.65Zm-2-3.71L31,54a2.38,2.38,0,0,1-.39.24c-.1,0-.31.15-.35.15s-.08-.08-.12-.32.72-.31.72-.31Z"/><path class="cls-2" d="M94.93,54.8l-.22.43,1.15.27L94,61l-2.63-1L92.1,58l.29-.85-.31-.53-.47,1.35-.72,2-2.54.44,2.29-5,.71-.19-.21-.43-.65.18L88,54.17l-3.12,6,2.79.78L88,61h.17l2.93-.5,3.25,1.22,2.13-6.59Zm-9.36,5,2.67-5.09,2,.65-1.86,4.06-.47,1Z"/><path class="cls-2" d="M91.66,54.75l.22.43c.15.29.31.59.46.85l.31.54c.24.42.41.69.41.69s.63-1,1.18-2.09l.22-.43a5.06,5.06,0,0,0,.59-1.68,2,2,0,0,0-4,0A5.1,5.1,0,0,0,91.66,54.75Zm1.4-3A1.22,1.22,0,1,1,91.84,53a1.22,1.22,0,0,1,1.22-1.22Z"/><circle class="cls-2" cx="57.57" cy="16.15" r="2.07"/><path class="cls-2" d="M57.57,11.78a4.37,4.37,0,1,0,4.37,4.39,4.37,4.37,0,0,0-4.37-4.39Zm0,7.44a3.07,3.07,0,1,1,3.07-3.07v0A3.07,3.07,0,0,1,57.57,19.22Z"/><path class="cls-2" d="M73.42,9.94H68a.59.59,0,0,0-.59.59v.37h5a.88.88,0,0,1,.88.88V16.9h.22a.59.59,0,0,0,.59-.59V10.53a.59.59,0,0,0-.58-.6Z"/><rect class="cls-2" x="66.56" y="11.49" width="6.05" height="6.37" rx="0.29" ry="0.29"/><path class="cls-2" d="M13.82,54.17H11.28v3.2a1.07,1.07,0,0,1-1.1,1H6.82v0a.69.69,0,0,0,.72.65h4.89l1.32,1.44-.11-1.44h.18a.69.69,0,0,0,.72-.65V54.78A.69.69,0,0,0,13.82,54.17Z"/><path class="cls-2" d="M10.18,57.92a.62.62,0,0,0,.65-.59h0V54a.62.62,0,0,0-.65-.59H4.52a.62.62,0,0,0-.65.59h0v3.29a.62.62,0,0,0,.65.59h.16l-.1,1.25,1.19-1.3Z"/><path class="cls-2" d="M109,76.91l-.53-.53a.72.72,0,0,0-1,0l-.25.25-.08.1,1.53,1.53.1-.08.25-.25a.72.72,0,0,0,0-1Z"/><polygon class="cls-2" points="107.97 53.63 109.02 52.57 108.79 51.71 107.92 52.59 107.18 51.85 108.05 50.98 107.19 50.75 106.14 51.8 106.35 52.57 103.56 55.35 102.79 55.15 101.74 56.2 101.97 57.06 102.84 56.19 103.58 56.92 102.7 57.8 103.56 58.03 104.62 56.98 104.42 56.2 107.2 53.42 107.97 53.63"/><path class="cls-2" d="M102.14,20.11l-2-2a3.3,3.3,0,1,0-.75.73l2,2a.52.52,0,0,0,.74-.74Zm-7.05-4a2.37,2.37,0,1,1,0,.06Z"/><polygon class="cls-2" points="2.21 71.19 8.03 71.19 8.56 75.17 8.56 70.31 2.8 70.31 2.8 69.37 0.94 69.37 0.94 70.24 1.75 70.24 2.21 71.19"/><polygon class="cls-2" points="1.97 71.58 1.51 70.63 0 70.63 1.1 76.42 8.34 76.42 7.69 71.58 1.97 71.58"/><polygon class="cls-2" points="23.81 29.05 27.87 26.7 23.81 24.36 23.81 29.05"/><polygon class="cls-2" points="28.37 29.05 32.43 26.7 28.37 24.36 28.37 29.05"/><rect class="cls-2" x="32.98" y="24.36" width="0.41" height="4.68"/><path class="cls-2" d="M106.2,65.43a2,2,0,0,1,1.37.54l.64-.77a3,3,0,0,0-4,0l.64.77a2,2,0,0,1,1.37-.54"/><path class="cls-2" d="M106.2,62.83a4.63,4.63,0,0,0-3,1.14l.65.79a3.58,3.58,0,0,1,4.77,0l.65-.79a4.63,4.63,0,0,0-3-1.14"/><path class="cls-2" d="M106.2,61.27a6.18,6.18,0,0,0-4,1.5l.65.78a5.18,5.18,0,0,1,6.78,0l.65-.78a6.18,6.18,0,0,0-4-1.5"/><path class="cls-2" d="M106.81,66.89a.84.84,0,0,0-1.19,0l0,0,.61.73Z"/><polygon class="cls-2" points="114.15 69.91 114.62 69.91 114.81 69.91 115.01 69.91 115.01 70.21 115.01 72.87 118.77 72.87 118.77 70.21 118.77 69.91 118.96 69.91 119.16 69.91 119.63 69.91 116.89 67.93 114.15 69.91"/><path class="cls-2" d="M116.89,65.84a4.85,4.85,0,1,0,4.85,4.85h0A4.85,4.85,0,0,0,116.89,65.84Zm3.38,4.27-.17.1h-.95V73a.18.18,0,0,1-.19.15h-4.15a.18.18,0,0,1-.19-.15V70.17h-.95l-.17-.1v-.16l3.21-2.32H117l3.21,2.32Z"/><path class="cls-2" d="M13.6,31.75a4.4,4.4,0,1,0-7.2,3.42,3.07,3.07,0,0,1,2.8-2,3.07,3.07,0,0,1,2.8,2A4.39,4.39,0,0,0,13.6,31.75Zm-4.4.88a1.57,1.57,0,1,1,1.57-1.57h0A1.57,1.57,0,0,1,9.2,32.63Z"/><path class="cls-2" d="M94,65.92a6.46,6.46,0,1,0,6.46,6.46h0A6.46,6.46,0,0,0,94,65.92Zm3,4.45a1.08,1.08,0,1,1-1.08,1.08A1.08,1.08,0,0,1,97,70.37Zm-3-.63a1.41,1.41,0,1,1-1.37,1.45v0A1.41,1.41,0,0,1,94,69.74Zm-2.81.63a1.08,1.08,0,1,1-1.07,1.09h0a1.07,1.07,0,0,1,1.06-1.08h0Zm-2.24,3.8c0-.77,1-1.4,2.29-1.4a3.35,3.35,0,0,1,1.3.25,2.44,2.44,0,0,0-1.47,1.15Zm2.21.43C91.25,73.7,92.51,73,94,73s2.79.72,2.88,1.62ZM97,74.17A2.39,2.39,0,0,0,95.61,73,3.32,3.32,0,0,1,97,72.74c1.26,0,2.29.63,2.29,1.4Z"/><path class="cls-2" d="M34.82,39.82H32.47c-.75-1.2-2.58-4.13-2.66-4.17s-.89-.29-.6.75.56,2.48.73,3.41H27a.49.49,0,0,0-.26.08l-.64-.94s-.44-.18-.32.24A9.77,9.77,0,0,1,26,40.33a3.75,3.75,0,0,1-.25,1.14c-.11.39.32.24.32.24l.66-1a.5.5,0,0,0,.25.07h2.92c-.17.94-.48,2.48-.74,3.44s.51.8.6.75,1.93-3,2.67-4.19H34.8a.51.51,0,0,0,0-1Z"/><path class="cls-2" d="M97.16,28l-.83-1.16H93.78L92.95,28H90.76v5.58h8.59V28Zm-4.82,1.29H91.2V28.6h1.14ZM95.05,33a2.24,2.24,0,1,1,2.24-2.24h0A2.24,2.24,0,0,1,95.05,33Z"/><path class="cls-2" d="M95.05,28.9a1.85,1.85,0,1,0,1.73,1.21A1.85,1.85,0,0,0,95.05,28.9Z"/><polygon class="cls-2" points="98.57 27.35 97.92 27.35 97.71 27.81 98.78 27.81 98.57 27.35"/><path class="cls-2" d="M105,45.37a.43.43,0,0,0,.44.41h6.29a.43.43,0,0,0,.44-.41v-5H105Z"/><polygon class="cls-2" points="112.01 38.28 111.72 37.12 110.1 37.51 111.01 38.52 112.01 38.28"/><polygon class="cls-2" points="104.75 38.83 105.04 39.99 106.6 39.61 105.69 38.6 104.75 38.83"/><polygon class="cls-2" points="106.2 38.47 107.11 39.48 108.55 39.13 107.64 38.12 106.2 38.47"/><polygon class="cls-2" points="109.59 37.64 108.15 38 109.06 39 110.5 38.65 109.59 37.64"/><path class="cls-2" d="M34,70.23l.45-.63a.7.7,0,0,0,.26.05A.69.69,0,1,0,34,69a.67.67,0,0,0,.17.45l-.43.6a4.86,4.86,0,0,0-2.29-1.13l.07-.24v-1a.49.49,0,0,0-.49-.49H30a.49.49,0,0,0-.49.49v1l.07.24A4.86,4.86,0,1,0,34,70.23Zm.71-1.64a.37.37,0,1,1-.37.37.37.37,0,0,1,.37-.37Zm-4.71-1,0-.05h1l0,.05v1l0,.05H30Zm.56,10.11a4.1,4.1,0,1,1,4.1-4.1h0a4.1,4.1,0,0,1-4,4.15h-.05Z"/><path class="cls-2" d="M30.78,73.17V70.69h-.44v2.48a.5.5,0,0,0-.23.23H27.6v.44h2.51a.5.5,0,1,0,.67-.67Z"/><polygon class="cls-2" points="104.89 82.08 108.25 78.71 106.72 77.18 106.71 77.17 101.8 82.08 104.89 82.08"/></g></g></g></g></svg>